<svg width="24" height="24" viewBox="0 0 24 24" fill="none" xmlns="http://www.w3.org/2000/svg">
<path d="M9.16488 17.6503C8.92513 17.8742 8.73958 18.024 8.54996 18.1335C7.62175 18.6694 6.47816 18.6694 5.54996 18.1335C5.20791 17.936 4.87912 17.6072 4.22153 16.9496C3.56394 16.292 3.23514 15.9633 3.03767 15.6212C2.50177 14.693 2.50177 13.5494 3.03767 12.6212C3.23514 12.2792 3.56394 11.9504 4.22153 11.2928L7.04996 8.46436C7.70755 7.80677 8.03634 7.47797 8.37838 7.28049C9.30659 6.74459 10.4502 6.74459 11.3784 7.28049C11.7204 7.47797 12.0492 7.80677 12.7068 8.46436C13.3644 9.12194 13.6932 9.45074 13.8907 9.79278C14.4266 10.721 14.4266 11.8646 13.8907 12.7928C13.7812 12.9824 13.6314 13.168 13.4075 13.4077M10.5919 10.5921C10.368 10.8318 10.2182 11.0174 10.1087 11.207C9.57284 12.1352 9.57284 13.2788 10.1087 14.207C10.3062 14.549 10.635 14.8778 11.2926 15.5354C11.9502 16.193 12.279 16.5218 12.621 16.7193C13.5492 17.2552 14.6928 17.2552 15.621 16.7193C15.9631 16.5218 16.2919 16.193 16.9495 15.5354L19.7779 12.707C20.4355 12.0494 20.7643 11.7206 20.9617 11.3786C21.4976 10.4504 21.4976 9.30677 20.9617 8.37857C20.7643 8.03653 20.4355 7.70773 19.7779 7.05014C19.1203 6.39255 18.7915 6.06376 18.4495 5.86628C17.5212 5.33038 16.3777 5.33038 15.4495 5.86628C15.2598 5.97576 15.0743 6.12559 14.8345 6.34943" stroke="#363636" stroke-width="2" stroke-linecap="round"/>
</svg>
